<svg width="253" height="96" viewBox="0 0 253 96" fill="none" xmlns="http://www.w3.org/2000/svg">
<path d="M108.732 0.13477C109.014 -0.166461 109.626 0.0553248 109.14 0.620271L106.017 4.26483C105.603 4.72464 105.402 5.33734 105.463 5.95305C103.809 6.99798 102.423 8.24814 101.387 9.64616C100.751 8.75019 100.555 7.74057 100.922 6.58641C101.358 5.27997 102.515 4.75585 103.778 4.34207C104.623 4.06732 105.411 3.68444 106.171 2.87343L108.732 0.13477Z" fill="white"/>
<path d="M101.914 1.48674C102.378 1.06083 102.78 1.42937 102.376 1.91818C101.351 3.15841 100.175 4.27396 99.2049 5.55612C98.3745 6.65401 98.4967 7.53012 99.7588 8.42498C100.317 8.82001 100.792 9.31654 101.261 9.81749C100.465 10.9319 99.8899 12.138 99.576 13.4047C98.7985 12.6367 98.0033 11.8831 97.3888 10.9849C96.1112 9.11572 96.9416 6.97069 98.3128 5.18648C99.3624 3.82046 100.647 2.64974 101.914 1.48674ZM95.6344 11.2927C95.6443 10.5446 96.2368 10.5336 96.25 11.3236C96.2621 12.0707 96.4152 12.3322 97.2038 12.8033C97.8965 13.2182 98.6685 13.611 99.4461 14.0104C99.2372 15.1789 99.2566 16.377 99.5033 17.538C98.4549 17.4818 97.4218 17.2368 96.4967 16.3497C95.4284 15.3279 95.6112 12.8265 95.6344 11.2927ZM95.9736 16.9676C96.1597 17.6881 97.8833 18.1096 99.7049 18.3226C100.057 19.4682 100.6 20.5462 101.31 21.5114C100.098 21.9407 98.8756 21.8877 97.5749 21.0701C96.2709 20.248 95.2037 18.9283 95.174 16.9091C95.1619 16.1522 95.7665 16.1643 95.9736 16.9676Z" fill="white"/>
<path d="M97.6057 22.056C97.1189 21.533 96.7434 21.6941 96.9592 22.2712C97.326 23.2521 97.892 24.1779 99.2059 25.1698C99.8689 25.6719 100.972 26.1077 102.653 25.5097C103.314 25.2747 103.829 24.8896 104.297 24.5023C103.292 23.7552 102.387 22.8811 101.606 21.9015C100.395 22.3694 99.3601 22.5658 98.4361 22.5492C98.0341 22.5426 97.8271 22.2955 97.6057 22.056Z" fill="white"/>
<path d="M100.929 26.3749C99.7819 25.9501 100.16 26.5901 100.377 26.8979C100.977 27.7564 101.845 28.457 103.546 28.7494C105.411 29.0694 107.036 28.1282 108.459 26.8494C107.174 26.3226 105.948 25.6594 104.804 24.871C103.852 25.6279 102.841 26.2204 101.73 26.5283C101.414 26.6165 101.221 26.4819 100.929 26.3749Z" fill="white"/>
<path d="M105.486 29.3042C104.607 29.067 104.641 29.472 104.992 29.7655C105.827 30.4628 106.849 30.9274 108.163 31.1227C110.079 31.4073 111.56 30.0877 112.876 28.1677C111.568 27.915 110.284 27.5514 109.038 27.0809C108.234 27.8963 107.368 28.6323 106.254 29.2105C106.045 29.3208 105.72 29.3671 105.486 29.3042Z" fill="white"/>
<path d="M113.393 28.2629C112.894 29.1816 112.262 30.0213 111.518 30.7544C111.06 31.2046 110.782 31.23 110.41 31.2465C109.899 31.2708 109.793 31.6482 110.256 31.8942C111.092 32.3422 112.295 32.5232 113.826 32.3565C115.501 32.1756 116.598 30.5801 117.53 28.6336C116.143 28.6217 114.76 28.4977 113.393 28.2629ZM126.847 0.13477C126.566 -0.166461 125.955 0.0553248 126.44 0.620271L129.562 4.26373C130.034 4.81323 130.161 5.38369 130.117 5.95195C131.77 6.99688 133.156 8.24704 134.194 9.64506C134.827 8.74909 135.026 7.73947 134.659 6.5853C134.223 5.27887 133.064 4.75475 131.801 4.34097C130.953 4.06622 130.167 3.68334 129.407 2.87233L126.847 0.13477Z" fill="white"/>
<path d="M133.667 1.48674C133.202 1.06083 132.802 1.42937 133.205 1.91818C134.23 3.15841 135.404 4.27396 136.377 5.55612C137.205 6.65401 137.085 7.53012 135.82 8.42498C135.26 8.82001 134.787 9.31654 134.321 9.81749C135.118 10.9319 135.691 12.138 136.004 13.4047C136.78 12.6367 137.577 11.8831 138.191 10.9849C139.47 9.11572 138.637 6.97179 137.267 5.18758C136.218 3.82046 134.932 2.64974 133.667 1.48674ZM139.945 11.2927C139.934 10.5446 139.343 10.5336 139.33 11.3236C139.314 12.0707 139.163 12.3322 138.376 12.8033C137.682 13.2182 136.91 13.611 136.134 14.0104C136.342 15.1789 136.323 16.377 136.076 17.538C137.123 17.4818 138.159 17.2368 139.082 16.3497C140.149 15.3279 139.966 12.8265 139.945 11.2927ZM139.605 16.9676C139.42 17.6881 137.697 18.1096 135.875 18.3226C135.519 19.467 134.977 20.5446 134.27 21.5114C135.484 21.9407 136.705 21.8877 138.006 21.0701C139.311 20.248 140.375 18.9283 140.407 16.9091C140.419 16.1522 139.813 16.1643 139.605 16.9676Z" fill="white"/>
<path d="M137.975 22.056C138.461 21.533 138.839 21.6941 138.623 22.2712C138.257 23.2521 137.688 24.1779 136.377 25.1698C135.712 25.6719 134.611 26.1077 132.926 25.5097C132.268 25.2747 131.753 24.8896 131.283 24.5023C132.29 23.7567 133.194 22.8823 133.974 21.9015C135.185 22.3694 136.221 22.5658 137.145 22.5492C137.547 22.5426 137.756 22.2955 137.975 22.056Z" fill="white"/>
<path d="M134.649 26.3749C135.796 25.9501 135.419 26.5901 135.204 26.8979C134.602 27.7564 133.734 28.457 132.033 28.7494C130.171 29.0694 128.542 28.1282 127.123 26.8494C128.408 26.3231 129.633 25.6598 130.777 24.871C131.726 25.6279 132.738 26.2204 133.848 26.5283C134.166 26.6165 134.359 26.4819 134.649 26.3749Z" fill="white"/>
<path d="M130.096 29.3042C130.974 29.067 130.942 29.472 130.587 29.7655C129.752 30.4628 128.732 30.9274 127.418 31.1227C125.5 31.4073 124.021 30.0877 122.704 28.1677C124.012 27.915 125.296 27.5514 126.542 27.0809C127.346 27.8963 128.212 28.6323 129.325 29.2116C129.537 29.3208 129.859 29.3671 130.096 29.3042Z" fill="white"/>
<path d="M124.061 30.7538C123.317 30.0205 122.686 29.1809 122.187 28.2623C120.82 28.4971 119.436 28.6211 118.049 28.633C118.979 30.5794 120.078 32.175 121.752 32.3559C123.283 32.5225 124.487 32.3416 125.323 31.8936C125.786 31.6475 125.68 31.2702 125.17 31.2459C124.797 31.2293 124.519 31.204 124.061 30.7538Z" fill="white"/>
<path d="M81.1387 11.2833H94.4934C94.0747 12.6287 93.8522 14.0275 93.8326 15.4366H81.1387V11.2833ZM141.086 11.2833H194.201V15.4366H141.746C141.726 14.0276 141.504 12.6288 141.086 11.2833ZM81.1387 17.1877H93.9141C94.0683 18.6232 94.435 20.0135 94.9868 21.3398H81.1387V17.1877ZM141.663 17.1877H194.2V21.3398H140.588C141.146 20.0155 141.508 18.6167 141.663 17.1877ZM81.1387 23.0909H95.8458C96.723 24.6225 97.814 26.0207 99.086 27.243H81.1387V23.0909ZM139.734 23.0909H194.2V27.243H136.493C137.765 26.021 138.857 24.6228 139.734 23.0909Z" fill="white"/>
<path d="M117.791 3.36694C107.996 3.36694 100.052 8.8626 100.052 15.6244C100.052 22.3861 107.996 27.8818 117.791 27.8818C127.585 27.8818 135.53 22.3861 135.53 15.6244C135.53 8.8626 127.599 3.36694 117.791 3.36694ZM124.483 24.2504C124.845 24.6539 125.582 25.127 125.582 25.127C125.582 25.127 124.58 26.1009 121.965 26.1009C119.349 26.1009 118.083 24.8209 118.083 24.8209C118.083 24.8209 125.512 18.0452 125.846 17.7809C126.18 17.5165 125.944 17.3496 125.61 17.6417C125.276 17.9478 118.278 23.3461 118.278 23.3461C118.278 23.3461 117.874 9.36347 117.874 9.16869C117.874 8.97391 117.777 8.90434 117.777 8.90434C117.777 8.90434 117.679 8.97391 117.679 9.16869C117.679 9.36347 117.276 23.3461 117.276 23.3461C117.276 23.3461 110.292 17.9478 109.944 17.6417C109.61 17.3357 109.373 17.5026 109.707 17.7809C110.041 18.0452 117.471 24.8209 117.471 24.8209C117.471 24.8209 116.205 26.1009 113.589 26.1009C110.973 26.1009 109.972 25.127 109.972 25.127C109.972 25.127 110.709 24.6539 111.071 24.2504C111.432 23.847 112.142 22.6783 110.5 21.8713C108.858 21.0644 105.951 19.7287 105.951 19.7287C105.951 19.7287 107.996 19.0887 107.189 17.2522C106.382 15.4157 106.285 15.0678 106.285 15.0678C106.285 15.0678 107.592 15.2626 108.427 15.2626C109.262 15.2626 110.097 15.36 109.86 12.8557C109.86 12.8557 112.504 15.7078 113.005 16.2783C113.505 16.8487 114.048 17.2522 114.577 17.0852C115.105 16.9183 115.286 16.153 114.98 14.8035C114.674 13.4678 113.408 7.86086 113.408 7.86086C113.408 7.86086 114.104 8.33391 114.883 8.33391C115.662 8.33391 116.093 7.93043 116.525 7.0539C116.956 6.17738 117.763 4.60521 117.763 4.60521C117.763 4.60521 118.57 6.17738 119.001 7.0539C119.432 7.93043 119.878 8.33391 120.643 8.33391C121.408 8.33391 122.118 7.86086 122.118 7.86086C122.118 7.86086 120.852 13.4539 120.545 14.8035C120.239 16.1391 120.406 16.9183 120.949 17.0852C121.478 17.2522 122.02 16.8487 122.521 16.2783C123.022 15.7078 125.665 12.8557 125.665 12.8557C125.429 15.3739 126.264 15.2626 127.099 15.2626C127.933 15.2626 129.241 15.0678 129.241 15.0678C129.241 15.0678 129.144 15.4017 128.337 17.2522C127.53 19.1026 129.575 19.7287 129.575 19.7287C129.575 19.7287 126.667 21.0644 125.025 21.8713C123.384 22.6783 124.093 23.847 124.455 24.2504H124.483Z" fill="white"/>
<path d="M124.184 56.5917C126.856 51.484 135.84 40.536 146.524 40.536C150.171 40.536 153.326 42.4813 153.568 46.1303C153.816 53.9137 140.214 61.7005 127.585 67.7847C126.858 69.0029 125.886 70.4616 125.4 71.192C125.157 71.437 125.157 71.6764 125.157 71.6764C125.157 71.6764 125.644 71.192 126.858 70.4583C128.074 69.73 131.471 68.2691 136.568 68.0252C138.753 67.7814 145.552 68.5107 146.042 75.812C146.042 81.1657 143.128 84.3292 140.458 87.2444C139.972 87.4905 139.972 87.7321 139.972 87.7321C139.972 87.7321 140.217 87.7321 140.701 87.4861C143.615 85.5386 149.686 79.7004 153.571 76.538C158.917 71.6742 167.415 66.8082 174.701 66.8082C179.314 66.8082 182.715 68.9973 183.2 72.4025V72.888C183.932 71.9137 184.901 70.2089 186.114 67.7781H196.799C196.315 68.2647 196.07 68.2647 195.826 68.7524C192.912 74.105 189.755 79.2127 186.599 84.5665C184.414 88.2165 187.325 89.6763 189.271 89.6763C190.971 89.6763 194.616 88.7042 198.5 83.5933C201.414 79.941 206.03 71.4293 206.03 71.4293H200.443C199.96 71.4293 199.714 71.4293 199.228 71.6742C199.228 71.1887 199.71 70.7021 200.199 69.9694C200.683 69.2412 200.927 68.5107 201.415 67.7814H208.214C208.214 67.7814 218.171 51.2369 219.142 49.2893H229.342C229.342 49.5343 228.859 50.2648 228.616 50.7503C224.971 56.3456 221.813 61.9432 218.414 67.5386L217.932 68.0219C217.932 68.0219 218.414 67.7803 218.902 67.7803H230.074C233.717 61.6961 237.359 55.3713 241.002 49.2871H251.443C251.443 49.2871 250.96 49.531 250.473 50.0176C248.042 54.1554 243.429 61.9421 240.029 68.0208H239.787L240.516 67.777H247.315C250.228 67.777 252.413 67.2904 252.413 67.2904C251.2 69.239 250.228 70.9416 249.016 72.8869C248.042 71.4304 247.072 71.6698 245.859 71.4304H238.087C237.602 72.1564 230.074 84.5654 229.829 85.5375C229.345 87.9727 231.044 89.4314 233.23 89.4314C236.875 89.9147 242.215 84.3226 244.888 80.9131H248.042C249.016 80.9131 249.986 80.4298 249.986 80.4298C247.072 83.3494 243.914 87.24 239.302 90.6473C235.659 93.567 231.044 95.2717 227.161 95.2717C222.549 95.2717 219.879 93.0848 219.389 90.6473C219.145 90.4057 219.145 89.6752 219.145 89.1886C219.145 89.1886 218.902 89.4347 218.417 89.9169C213.317 93.8108 208.463 95.2728 204.33 95.029C200.933 95.029 197.535 93.5703 197.048 90.4079C197.048 89.918 196.805 89.6774 197.048 89.1897C196.805 89.4369 196.566 89.4369 196.319 89.6775C194.864 90.8945 189.522 95.7583 181.021 95.0301C178.35 94.5446 175.437 93.3253 175.191 89.6775V88.4593L174.949 88.7053C172.035 91.38 166.936 95.2717 159.408 95.0268C154.55 94.7873 151.879 91.3778 151.395 88.7053C150.913 85.7846 151.879 82.8628 153.826 80.1859C154.068 79.9421 154.309 79.9421 154.309 79.9421C154.309 79.9421 153.826 79.9421 153.337 80.1859C150.909 82.1323 146.294 86.5085 140.951 89.6775C137.309 92.351 128.567 96 121.526 96C109.384 95.2717 107.683 89.1875 107.441 88.9426V89.1886C102.584 92.8398 96.7546 95.755 90.4418 95.0268C88.4979 94.7873 86.5563 94.0569 85.5838 92.3499C85.1003 91.134 84.8547 89.4303 85.1003 88.2143C84.8558 88.4604 84.6135 88.7031 84.3712 88.9426C81.2148 91.8622 76.3569 95.0268 71.0154 95.0268C67.3722 95.2728 63.4867 94.5424 61.7863 91.1373C60.3292 88.2176 61.544 85.2991 61.544 85.2991C61.3006 85.7824 60.816 86.2734 60.088 87.0017C57.6596 90.409 53.0439 95.0268 44.546 95.2728C38.7178 95.7561 30.7034 92.1116 29.2463 91.6195C28.275 91.8655 21.4754 95.2728 13.2187 95.2728C11.5193 95.2728 0.347438 95.5167 0.590832 87.7299C0.834226 84.5687 3.26156 80.9153 12.0039 80.187C18.3178 79.7026 24.3895 81.8896 30.2177 83.5943C32.4028 80.9153 34.3455 77.754 36.046 74.8355C34.3466 75.5637 31.1891 75.3199 31.1891 75.3199C21.2331 75.3199 15.646 68.9951 15.646 62.1827C16.1328 53.4238 23.4192 46.853 34.5878 46.6114C38.4733 46.6114 44.3015 48.5567 44.546 49.0455L44.0592 49.5299C43.3302 49.0455 37.7442 48.3139 32.1605 50.9897C27.5459 53.1789 23.1736 57.5561 23.1736 63.1515C22.9324 66.8038 24.8752 69.965 28.0305 71.4271C30.9446 72.8836 34.3444 72.8835 37.2585 72.1531C41.144 65.5867 46.4866 56.3412 49.8864 51.9596C54.2565 46.1203 63.9713 37.6064 73.6839 38.8224C73.6839 38.8224 80.2412 39.3079 80.4835 45.3932C80.2412 50.7469 76.3547 54.3948 72.7126 57.8021C64.6883 64.8673 54.4899 70.2155 50.1177 72.163C48.6617 75.0826 47.448 77.274 46.2322 78.9766C42.5912 83.5999 40.4039 85.0608 39.4348 85.5441C38.948 85.789 38.7057 85.789 38.7057 85.789C40.1627 86.2789 41.6187 86.7633 43.318 87.4916C45.9899 88.4681 48.9029 89.1964 50.8456 88.9525C54.4888 88.7098 56.4316 87.0072 58.6166 84.3303C60.5594 82.6256 63.9603 78.49 67.6024 75.0826C74.6454 68.0252 81.2016 67.0564 84.1157 66.8115C88.9715 66.8115 91.8856 68.759 92.8581 71.6775C92.8581 71.9225 93.1004 72.4058 92.8581 72.6518C94.0729 71.1942 94.8008 69.7333 95.7722 67.7869H106.214C105.972 68.0285 105.728 68.2724 105.486 68.5174C102.572 73.3801 99.9011 78.2483 96.9859 83.1144C96.0156 84.572 94.5585 86.7633 96.0156 88.4659C97.4716 89.9224 99.9 89.9224 101.843 88.9503C105.972 87.005 108.158 82.8672 110.585 79.2204C114.713 72.408 124.184 56.5917 124.184 56.5917ZM145.311 43.2118C140.699 43.2118 138.999 49.7815 129.771 64.3796C133.897 61.4599 147.738 50.7547 147.738 45.6459C147.738 43.6995 146.04 43.2118 145.311 43.2118ZM228.116 71.192C228.116 71.192 227.875 71.6764 226.902 71.437C226.902 71.437 215.975 71.6808 215.975 71.437C211.846 78.9777 208.689 83.3593 208.2 85.0619C207.716 86.0351 206.747 89.4424 211.36 89.683C215.002 89.683 219.37 85.3035 220.344 83.601C222.771 80.4375 225.684 75.0815 227.626 72.1641C227.876 71.6764 228.116 71.192 228.116 71.192ZM177.124 70.946C172.996 70.946 169.351 75.0815 166.924 77.7606C163.279 82.3828 162.552 84.818 162.552 86.2801C162.552 88.2232 164.008 89.683 165.951 89.683C169.598 89.9257 172.995 86.5184 175.911 82.6256C178.338 79.4654 180.523 75.8131 180.281 74.3544C180.281 73.625 180.038 71.192 177.124 70.946ZM131.713 72.408C123.699 72.408 116.898 87.2466 117.142 88.9525C117.142 90.8989 118.842 91.871 121.028 91.871C125.885 91.871 135.6 81.168 135.355 75.8131C135.355 73.625 133.655 72.408 131.713 72.408ZM74.1597 46.3752C75.3734 43.6995 73.674 41.9958 72.4593 41.7531C69.3028 41.2653 67.1156 44.1861 65.903 46.1314C61.5318 52.7011 54.9745 64.6223 52.7895 67.543C52.3049 68.2713 52.0604 68.2713 51.817 69.0018C51.817 69.0018 57.403 65.3484 64.2026 58.5392C65.903 56.5917 72.217 50.7558 74.1597 46.3752ZM78.5298 76.0559C74.402 80.1936 72.7015 83.601 72.7015 86.0318C72.4581 87.2477 72.7015 89.4391 75.858 89.683C78.5287 89.9257 82.4142 87.0083 85.5706 82.8705C88.2424 79.707 90.1852 76.3019 90.4286 74.1116C90.4286 72.8946 89.4572 71.192 87.0299 70.9504C84.6003 70.946 81.6862 72.6507 78.5298 76.0559ZM8.5931 85.3035C7.62173 85.0575 3.97963 85.3035 3.97963 87.9804C3.97963 88.7109 4.46531 91.8699 11.2649 92.1182C16.8487 91.8699 20.0073 90.654 21.4643 90.4134C22.6791 89.9257 23.6505 89.4391 24.1362 89.4391C23.6505 89.1931 23.6505 89.4391 22.9225 89.1931C20.5651 88.4115 18.2172 87.6012 15.8795 86.7622C12.9643 85.789 9.80787 85.3035 8.5931 85.3035Z" fill="white"/>
</svg>
